<svg version="1.1" id="Layer_1" xmlns="http://www.w3.org/2000/svg" xmlns:xlink="http://www.w3.org/1999/xlink" x="0px" y="0px"
	 width="100%" viewBox="0 0 110 104" enable-background="new 0 0 110 104" xml:space="preserve">
<path fill="none" opacity="1.000000" stroke="#000000" stroke-linecap="round" stroke-linejoin="round" stroke-width="3.000000"
	d="
M57.000000,34.500000 
	C63.647045,35.451469 70.334061,34.805561 77.000740,34.970001 
	C82.830528,35.113808 88.667076,35.040527 94.499809,34.981087 
	C97.016083,34.955448 98.652573,35.226219 99.147842,38.477478 
	C99.694656,42.067154 101.388596,45.482090 102.751640,49.466404 
	C95.996475,54.058353 90.015686,59.837727 82.500000,63.500000 
"/>
<path fill="none" opacity="1.000000" stroke="#000000" stroke-linecap="round" stroke-linejoin="round" stroke-width="3.000000"
	d="
M71.500000,34.000000 
	C69.982758,26.798988 67.084557,20.023533 65.049240,12.985761 
	C64.318756,10.459877 62.806744,9.913704 60.499310,9.973137 
	C56.668518,10.071808 52.833332,10.000000 48.604706,10.000000 
	C44.762585,21.753448 40.743488,33.584610 37.093189,45.528481 
	C36.134800,48.664368 34.822514,50.173225 31.498093,50.052494 
	C29.488247,49.979500 27.282858,49.363815 25.500000,51.000000 
"/>
<path fill="none" opacity="1.000000" stroke="#000000" stroke-linecap="round" stroke-linejoin="round" stroke-width="3.000000"
	d="
M77.500000,50.500000 
	C81.628349,63.179310 85.756699,75.858620 90.064705,89.089722 
	C86.077263,91.989555 81.845345,95.067192 77.325928,98.353905 
	C70.848167,93.542694 64.424088,88.771347 58.000000,84.000000 
"/>
<path fill="none" opacity="1.000000" stroke="#000000" stroke-linecap="round" stroke-linejoin="round" stroke-width="3.000000"
	d="
M39.500000,35.500000 
	C31.166666,34.370338 22.833334,35.345181 14.376298,34.919571 
	C13.849598,37.629204 13.596064,39.865036 12.969962,41.991154 
	C10.436238,50.595196 10.446028,50.509495 17.486643,55.518772 
	C26.042877,61.606403 34.499996,67.833336 42.999996,74.000000 
"/>
<path fill="none" opacity="1.000000" stroke="#000000" stroke-linecap="round" stroke-linejoin="round" stroke-width="3.000000"
	d="
M55.000000,41.500000 
	C60.305119,42.569592 65.667236,41.843872 71.000732,41.968918 
	C76.830856,42.105606 82.666664,42.000000 88.500000,42.000000 
"/>
<path fill="none" opacity="1.000000" stroke="#000000" stroke-linecap="round" stroke-linejoin="round" stroke-width="3.000000"
	d="
M52.500000,21.500000 
	C52.579041,26.674215 49.214443,30.724749 47.910976,35.475574 
	C46.225769,41.617767 44.791260,47.906101 41.500000,53.500000 
"/>
<path fill="none" opacity="1.000000" stroke="#000000" stroke-linecap="round" stroke-linejoin="round" stroke-width="3.000000"
	d="
M30.499998,66.000000 
	C28.499998,72.500000 26.680750,79.063828 24.418295,85.471153 
	C23.396545,88.364777 22.997141,89.991837 26.425316,91.654030 
	C29.771000,93.276237 32.504459,96.161110 35.606644,98.569252 
	C43.379856,92.897430 51.207027,87.221924 58.990276,81.486801 
	C61.551983,79.599197 63.469757,78.594513 66.621712,81.361343 
	C71.606636,85.737175 77.800491,88.654900 82.500000,93.500000 
"/>
<path fill="none" opacity="1.000000" stroke="#000000" stroke-linecap="round" stroke-linejoin="round" stroke-width="3.000000"
	d="
M70.000000,51.000000 
	C72.500000,58.833336 75.028152,66.657883 77.476616,74.507294 
	C77.975449,76.106514 79.220291,77.694633 78.000000,79.500000 
"/>
<path fill="none" opacity="1.000000" stroke="#000000" stroke-linecap="round" stroke-linejoin="round" stroke-width="3.000000"
	d="
M66.000000,67.500000 
	C57.166668,73.833336 48.333332,80.166664 39.500000,86.500000 
"/>
<path fill="none" opacity="1.000000" stroke="#000000" stroke-linecap="round" stroke-linejoin="round" stroke-width="3.000000"
	d="
M22.500000,50.000000 
	C29.833334,55.166668 37.180748,60.313541 44.489681,65.514503 
	C46.225956,66.750015 47.833336,68.166664 49.500000,69.500000 
"/>
<path fill="none" opacity="1.000000" stroke="#000000" stroke-linecap="round" stroke-linejoin="round" stroke-width="3.000000"
	d="
M13.500000,42.000000 
	C21.330400,42.304501 29.187218,41.367405 37.000000,42.500000 
"/>
<path fill="none" opacity="1.000000" stroke="#000000" stroke-linecap="round" stroke-linejoin="round" stroke-width="3.000000"
	d="
M56.500000,11.000000 
	C59.130875,18.576111 61.907696,26.107803 63.500000,34.000000 
"/>
<path fill="none" opacity="1.000000" stroke="#000000" stroke-linecap="round" stroke-linejoin="round" stroke-width="3.000000"
	d="
M37.500000,71.000000 
	C33.863899,78.155312 32.313610,86.052246 29.500000,93.500000 
"/>
<path fill="none" opacity="1.000000" stroke="#000000" stroke-linecap="round" stroke-linejoin="round" stroke-width="3.000000"
	d="
M99.500000,42.500000 
	C93.234077,47.492706 86.736183,52.162296 80.000000,56.500000 
"/>
<path fill="none" opacity="1.000000" stroke="#000000" stroke-linecap="round" stroke-linejoin="round" stroke-width="3.000000"
	d="
M63.500000,59.500000 
	C58.333332,63.333332 53.411381,67.571373 47.930687,70.885368 
	C42.526150,74.153313 41.508942,79.054016 41.000000,84.500000 
"/>
<path fill="none" opacity="1.000000" stroke="#000000" stroke-linecap="round" stroke-linejoin="round" stroke-width="3.000000"
	d="
M52.500000,49.500000 
	C49.861950,51.920128 50.109444,55.622715 48.500000,58.500000 
"/>
<path fill="none" opacity="1.000000" stroke="#000000" stroke-linecap="round" stroke-linejoin="round" stroke-width="3.000000"
	d="
M53.000000,25.500000 
	C57.045620,31.666666 56.804661,37.664238 53.101078,44.058544 
	C50.568260,48.431499 51.837933,49.712402 56.995605,50.064377 
	C61.333286,50.360394 65.645447,49.916679 70.014229,50.359718 
	C76.383453,51.005619 81.594131,48.105648 85.500000,43.000000 
"/>
<path fill="none" opacity="1.000000" stroke="#000000" stroke-linecap="round" stroke-linejoin="round" stroke-width="3.000000"
	d="
M62.000000,51.000000 
	C63.641598,58.715206 66.377563,66.118156 69.187752,73.427818 
	C70.325287,76.386719 74.056572,77.882439 77.011688,79.478348 
	C78.348473,80.200279 79.916267,80.583733 80.000000,82.500000 
"/>
<path fill="none" opacity="1.000000" stroke="#000000" stroke-linecap="round" stroke-linejoin="round" stroke-width="3.000000"
	d="
M36.000000,50.000000 
	C42.405334,54.960644 49.501514,58.992218 55.500000,64.500000 
"/>
<path fill="none" opacity="1.000000" stroke="#000000" stroke-linecap="round" stroke-linejoin="round" stroke-width="3.000000"
	d="
M69.000000,74.500000 
	C67.207062,76.049377 64.519852,76.505745 63.500000,79.000000 
"/>
</svg>